<svg width="55" height="52" viewBox="0 0 55 52" fill="none" xmlns="http://www.w3.org/2000/svg">
<g clip-path="url(#clip0_1_994)">
<g filter="url(#filter0_d_1_994)">
<path fill-rule="evenodd" clip-rule="evenodd" d="M43.5543 42.1255C42.6469 41.7006 41.3063 41.2253 39.8863 40.7825C39.2229 40.5757 38.5256 40.8268 38.1494 41.408C37.3441 42.6521 36.6206 43.8707 36.1974 44.7747C35.7742 45.6787 35.3016 47.0147 34.8619 48.43C34.6564 49.0912 34.9102 49.7875 35.4939 50.1645C36.7434 50.9715 37.967 51.6967 38.8744 52.1215C39.7819 52.5464 41.1225 53.0217 42.5425 53.4645C43.2059 53.6713 43.9031 53.4202 44.2794 52.839C45.0847 51.5949 45.8081 50.3763 46.2313 49.4723C46.6546 48.5683 47.1271 47.2323 47.5669 45.817C47.7723 45.1558 47.5186 44.4595 46.9349 44.0825C45.6854 43.2755 44.4618 42.5503 43.5543 42.1255ZM41.1963 36.5661C38.6346 35.7673 35.8798 36.7593 34.4269 39.0038C33.5937 40.2911 32.7378 41.7124 32.1838 42.8956C31.6299 44.0788 31.0864 45.6464 30.6314 47.1109C29.8381 49.6641 30.8405 52.4151 33.0946 53.871C34.3875 54.706 35.8148 55.5639 37.0025 56.12C38.1902 56.676 39.7631 57.2227 41.2324 57.6809C43.7942 58.4797 46.5489 57.4877 48.0018 55.2432C48.8351 53.9559 49.691 52.5346 50.2449 51.3514C50.7989 50.1682 51.3423 48.6006 51.7973 47.1362C52.5906 44.5829 51.5882 41.8319 49.3341 40.376C48.0412 39.541 46.614 38.6831 45.4263 38.127C44.2386 37.571 42.6656 37.0243 41.1963 36.5661Z" fill="#F5365C" fill-opacity="0.4"/>
</g>
<g filter="url(#filter1_d_1_994)">
<path fill-rule="evenodd" clip-rule="evenodd" d="M21.7296 31.9077C20.8222 31.4829 19.4816 31.0076 18.0616 30.5648C17.3982 30.3579 16.7009 30.609 16.3247 31.1902C15.5194 32.4343 14.7959 33.6529 14.3727 34.5569C13.9495 35.4609 13.4769 36.7969 13.0372 38.2122C12.8317 38.8734 13.0854 39.5697 13.6692 39.9467C14.9187 40.7537 16.1423 41.4789 17.0497 41.9038C17.9571 42.3286 19.2978 42.8039 20.7178 43.2467C21.3812 43.4535 22.0784 43.2025 22.4546 42.6212C23.26 41.3771 23.9834 40.1585 24.4066 39.2545C24.8299 38.3505 25.3024 37.0145 25.7422 35.5992C25.9476 34.938 25.6939 34.2418 25.1102 33.8647C23.8607 33.0577 22.6371 32.3325 21.7296 31.9077ZM19.3716 26.3484C16.8099 25.5496 14.0551 26.5415 12.6022 28.786C11.7689 30.0733 10.9131 31.4946 10.3591 32.6779C9.80518 33.8611 9.26172 35.4286 8.80672 36.8931C8.01341 39.4463 9.01581 42.1973 11.2699 43.6532C12.5628 44.4882 13.9901 45.3461 15.1778 45.9022C16.3654 46.4582 17.9384 47.0049 19.4077 47.4631C21.9695 48.2619 24.7242 47.2699 26.1771 45.0254C27.0104 43.7381 27.8663 42.3168 28.4202 41.1336C28.9742 39.9504 29.5176 38.3828 29.9726 36.9184C30.7659 34.3651 29.7635 31.6141 27.5094 30.1583C26.2165 29.3232 24.7893 28.4653 23.6016 27.9093C22.4139 27.3532 20.8409 26.8065 19.3716 26.3484Z" fill="#F5365C"/>
</g>
<g filter="url(#filter2_d_1_994)">
<path fill-rule="evenodd" clip-rule="evenodd" d="M53.733 20.3845C52.8256 19.9597 51.485 19.4844 50.065 19.0416C49.4016 18.8347 48.7043 19.0858 48.3281 19.667C47.5228 20.9112 46.7994 22.1297 46.3761 23.0337C45.9529 23.9377 45.4803 25.2737 45.0406 26.689C44.8352 27.3502 45.0889 28.0465 45.6726 28.4235C46.9221 29.2305 48.1457 29.9557 49.0531 30.3806C49.9606 30.8054 51.3012 31.2807 52.7212 31.7235C53.3846 31.9303 54.0818 31.6793 54.4581 31.098C55.2634 29.8539 55.9868 28.6354 56.4101 27.7313C56.8333 26.8273 57.3058 25.4913 57.7456 24.076C57.951 23.4149 57.6973 22.7186 57.1136 22.3416C55.8641 21.5346 54.6405 20.8093 53.733 20.3845ZM51.375 14.8252C48.8133 14.0264 46.0585 15.0183 44.6057 17.2628C43.7724 18.5501 42.9165 19.9715 42.3625 21.1547C41.8086 22.3379 41.2651 23.9055 40.8101 25.3699C40.0168 27.9231 41.0192 30.6741 43.2734 32.13C44.5662 32.965 45.9935 33.8229 47.1812 34.379C48.3689 34.935 49.9418 35.4817 51.4111 35.9399C53.9729 36.7387 56.7277 35.7467 58.1805 33.5023C59.0138 32.2149 59.8697 30.7936 60.4236 29.6104C60.9776 28.4272 61.521 26.8596 61.976 25.3952C62.7693 22.8419 61.767 20.0909 59.5128 18.6351C58.2199 17.8 56.7927 16.9421 55.605 16.3861C54.4173 15.83 52.8443 15.2833 51.375 14.8252Z" fill="#F5365C"/>
</g>
<g filter="url(#filter3_d_1_994)">
<path fill-rule="evenodd" clip-rule="evenodd" d="M31.9083 10.1667C31.0009 9.74189 29.6603 9.26659 28.2403 8.82381C27.5769 8.61695 26.8796 8.86802 26.5034 9.44925C25.6981 10.6934 24.9746 11.9119 24.5514 12.8159C24.1282 13.7199 23.6556 15.056 23.2159 16.4712C23.0105 17.1324 23.2642 17.8287 23.8479 18.2057C25.0974 19.0127 26.321 19.738 27.2284 20.1628C28.1359 20.5876 29.4765 21.0629 30.8965 21.5057C31.5599 21.7126 32.2571 21.4615 32.6334 20.8803C33.4387 19.6361 34.1621 18.4176 34.5853 17.5136C35.0086 16.6096 35.4811 15.2736 35.9209 13.8583C36.1263 13.1971 35.8726 12.5008 35.2889 12.1238C34.0394 11.3168 32.8158 10.5916 31.9083 10.1667ZM29.5503 4.6074C26.9886 3.80859 24.2338 4.80058 22.781 7.04504C21.9477 8.33237 21.0918 9.75368 20.5378 10.9369C19.9839 12.1201 19.4404 13.6877 18.9854 15.1521C18.1921 17.7054 19.1945 20.4563 21.4487 21.9122C22.7415 22.7472 24.1688 23.6052 25.3565 24.1612C26.5442 24.7173 28.1171 25.264 29.5864 25.7221C32.1482 26.5209 34.9029 25.5289 36.3558 23.2845C37.1891 21.9972 38.045 20.5758 38.5989 19.3926C39.1529 18.2094 39.6963 16.6418 40.1513 15.1774C40.9446 12.6242 39.9422 9.87317 37.6881 8.4173C36.3952 7.58227 34.968 6.72435 33.7803 6.1683C32.5926 5.61225 31.0196 5.06556 29.5503 4.6074Z" fill="#F5365C"/>
</g>
</g>
<defs>
<filter id="filter0_d_1_994" x="28.3623" y="36.2927" width="25.7041" height="26.6616" filterUnits="userSpaceOnUse" color-interpolation-filters="sRGB">
<feFlood flood-opacity="0" result="BackgroundImageFix"/>
<feColorMatrix in="SourceAlpha" type="matrix" values="0 0 0 0 0 0 0 0 0 0 0 0 0 0 0 0 0 0 127 0" result="hardAlpha"/>
<feOffset dy="3"/>
<feGaussianBlur stdDeviation="1"/>
<feColorMatrix type="matrix" values="0 0 0 0 0.913725 0 0 0 0 0.92549 0 0 0 0 0.937255 0 0 0 0.05 0"/>
<feBlend mode="normal" in2="BackgroundImageFix" result="effect1_dropShadow_1_994"/>
<feBlend mode="normal" in="SourceGraphic" in2="effect1_dropShadow_1_994" result="shape"/>
</filter>
<filter id="filter1_d_1_994" x="6.5376" y="26.075" width="25.7041" height="26.6616" filterUnits="userSpaceOnUse" color-interpolation-filters="sRGB">
<feFlood flood-opacity="0" result="BackgroundImageFix"/>
<feColorMatrix in="SourceAlpha" type="matrix" values="0 0 0 0 0 0 0 0 0 0 0 0 0 0 0 0 0 0 127 0" result="hardAlpha"/>
<feOffset dy="3"/>
<feGaussianBlur stdDeviation="1"/>
<feColorMatrix type="matrix" values="0 0 0 0 0.913725 0 0 0 0 0.92549 0 0 0 0 0.937255 0 0 0 0.05 0"/>
<feBlend mode="normal" in2="BackgroundImageFix" result="effect1_dropShadow_1_994"/>
<feBlend mode="normal" in="SourceGraphic" in2="effect1_dropShadow_1_994" result="shape"/>
</filter>
<filter id="filter2_d_1_994" x="38.541" y="14.5518" width="25.7041" height="26.6616" filterUnits="userSpaceOnUse" color-interpolation-filters="sRGB">
<feFlood flood-opacity="0" result="BackgroundImageFix"/>
<feColorMatrix in="SourceAlpha" type="matrix" values="0 0 0 0 0 0 0 0 0 0 0 0 0 0 0 0 0 0 127 0" result="hardAlpha"/>
<feOffset dy="3"/>
<feGaussianBlur stdDeviation="1"/>
<feColorMatrix type="matrix" values="0 0 0 0 0.913725 0 0 0 0 0.92549 0 0 0 0 0.937255 0 0 0 0.05 0"/>
<feBlend mode="normal" in2="BackgroundImageFix" result="effect1_dropShadow_1_994"/>
<feBlend mode="normal" in="SourceGraphic" in2="effect1_dropShadow_1_994" result="shape"/>
</filter>
<filter id="filter3_d_1_994" x="16.7163" y="4.33398" width="25.7041" height="26.6616" filterUnits="userSpaceOnUse" color-interpolation-filters="sRGB">
<feFlood flood-opacity="0" result="BackgroundImageFix"/>
<feColorMatrix in="SourceAlpha" type="matrix" values="0 0 0 0 0 0 0 0 0 0 0 0 0 0 0 0 0 0 127 0" result="hardAlpha"/>
<feOffset dy="3"/>
<feGaussianBlur stdDeviation="1"/>
<feColorMatrix type="matrix" values="0 0 0 0 0.913725 0 0 0 0 0.92549 0 0 0 0 0.937255 0 0 0 0.05 0"/>
<feBlend mode="normal" in2="BackgroundImageFix" result="effect1_dropShadow_1_994"/>
<feBlend mode="normal" in="SourceGraphic" in2="effect1_dropShadow_1_994" result="shape"/>
</filter>
<clipPath id="clip0_1_994">
<rect width="53.1799" height="53.3932" fill="white" transform="translate(22.6387 -4) rotate(25.0878)"/>
</clipPath>
</defs>
</svg>
