<svg width="16" height="17" viewBox="0 0 16 17" fill="none" xmlns="http://www.w3.org/2000/svg">
<path d="M8.46626 13.3608C8.20874 13.2254 7.79152 13.2252 7.53369 13.3608L4.29224 15.0649C3.77658 15.336 3.43801 15.0925 3.53688 14.5161L4.15594 10.9067C4.20512 10.6199 4.07635 10.2231 3.86776 10.0197L1.24537 7.46355C0.828197 7.05691 0.95509 6.65968 1.53389 6.57557L5.15794 6.04897C5.44586 6.00713 5.78349 5.76203 5.91241 5.50081L7.53314 2.21687C7.79096 1.69445 8.20796 1.69238 8.46681 2.21687L10.0875 5.50081C10.2163 5.76171 10.5537 6.00708 10.842 6.04897L14.4661 6.57557C15.0426 6.65935 15.1734 7.0553 14.7546 7.46355L12.1322 10.0197C11.9238 10.2228 11.7948 10.6196 11.844 10.9067L12.4631 14.5161C12.5616 15.0903 12.2254 15.3371 11.7077 15.0649L8.46626 13.3608Z" fill="#E9A220"/>
</svg>
